{"title":"[PureMature] - Drinks On Me - Brandi Love","uid":11151060,"size":217460185,"categoryP":"porn","categoryS":"movie_clips","magnet":"?xt=urn:btih:33a7fba210537f8073bdd87736e55adfbd63043a&amp;dn=%5BPureMature%5D+-+Drinks+On+Me+-+Brandi+Love&amp;tr=udp%3A%2F%2Ftracker.openbittorrent.com%3A80&amp;tr=udp%3A%2F%2Fopen.demonii.com%3A1337&amp;tr=udp%3A%2F%2Ftracker.coppersurfer.tk%3A6969&amp;tr=udp%3A%2F%2Fexodus.desync.com%3A6969","seeders":4,"leechers":4,"uploader":"supertongo","files":1,"time":1412345482,"description":"[PureMature] - Drinks On Me \n\n:::Media info:::\n\nGeneral\n\nFormat                         : MPEG-4\nFormat profile                 : Base Media\nCodec ID                       : isom\nFile size                      : 207 MiB\nDuration                       : 26mn 8s\nOverall bit rate               : 1 109 Kbps\n\nVideo\nID                             : 1\nFormat                         : AVC\nFormat/Info                    : Advanced Video Codec\nFormat profile                 : &lt;a class=&quot;__cf_email__&quot; href=&quot;/cdn-cgi/l/email-protection&quot; data-cfemail=&quot;337b5a545b737f001d03&quot;&gt;[email&amp;#160;protected]&lt;/a&gt;&lt;script cf-hash='f9e31' type=&quot;text/javascript&quot;&gt;\n/* &lt;![CDATA[ */!function(){try{var t=&quot;currentScript&quot;in document?document.currentScript:function(){for(var t=document.getElementsByTagName(&quot;script&quot;),e=t.length;e--;)if(t[e].getAttribute(&quot;cf-hash&quot;))return t[e]}();if(t&amp;&amp;t.previousSibling){var e,r,n,i,c=t.previousSibling,a=c.getAttribute(&quot;data-cfemail&quot;);if(a){for(e=&quot;&quot;,r=parseInt(a.substr(0,2),16),n=2;a.length-n;n+=2)i=parseInt(a.substr(n,2),16)^r,e+=String.fromCharCode(i);e=document.createTextNode(e),c.parentNode.replaceChild(e,c)}}}catch(u){}}();/* ]]&gt; */&lt;/script&gt;\nFormat settings, CABAC         : Yes\nFormat settings, ReFrames      : 5 frames\nCodec ID                       : avc1\nCodec ID/Info                  : Advanced Video Coding\nDuration                       : 26mn 8s\nBit rate                       : 1 000 Kbps\nWidth                          : 750 pixels\nHeight                         : 420 pixels\nDisplay aspect ratio           : 16:9\nFrame rate mode                : Constant\nFrame rate                     : 23.976 fps\nColor space                    : YUV\nChroma subsampling             : 4:2:0\nBit depth                      : 8 bits\nScan type                      : Progressive\nBits/(Pixel*Frame)             : 0.132\nStream size                    : 188 MiB (91%)\n\nAudio\nID                             : 2\nFormat                         : AAC\nFormat/Info                    : Advanced Audio Codec\nFormat profile                 : LC\nCodec ID                       : 40\nDuration                       : 26mn 8s\nBit rate mode                  : Constant\nBit rate                       : 96.0 Kbps\nChannel(s)                     : 2 channels\nChannel positions              : Front: L R\nSampling rate                  : 48.0 KHz\nCompression mode               : Lossy\nStream size                    : 17.9 MiB (9%)\nLanguage                       : English\n &lt;a href=&quot;\nhttp://bayimg.com/EAAeAAagN&quot; rel=&quot;nofollow&quot; target=&quot;_NEW&quot;&gt;\nhttp://bayimg.com/EAAeAAagN&lt;/a&gt;","torrent":{"xt":"urn:btih:33a7fba210537f8073bdd87736e55adfbd63043a","amp;dn":"%5BPureMature%5D+-+Drinks+On+Me+-+Brandi+Love","amp;tr":["udp%3A%2F%2Ftracker.openbittorrent.com%3A80","udp%3A%2F%2Fopen.demonii.com%3A1337","udp%3A%2F%2Ftracker.coppersurfer.tk%3A6969","udp%3A%2F%2Fexodus.desync.com%3A6969"],"infoHash":"33a7fba210537f8073bdd87736e55adfbd63043a","infoHashBuffer":{"type":"Buffer","data":[51,167,251,162,16,83,127,128,115,189,216,119,54,229,90,223,189,99,4,58]},"announce":[],"urlList":[]}}